<mxfile host="app.diagrams.net" modified="2023-09-19T02:22:28.161Z" agent="Mozilla/5.0 (Macintosh; Intel Mac OS X 10_15_7) AppleWebKit/537.36 (KHTML, like Gecko) Chrome/116.0.0.0 Safari/537.36" etag="38OhrQAlad8h0cjGMFXQ" version="21.7.5" type="github">
  <diagram id="C5RBs43oDa-KdzZeNtuy" name="Page-1">
    <mxGraphModel dx="1175" dy="765" grid="1" gridSize="10" guides="1" tooltips="1" connect="1" arrows="1" fold="1" page="1" pageScale="1" pageWidth="827" pageHeight="1169" math="0" shadow="0">
      <root>
        <mxCell id="WIyWlLk6GJQsqaUBKTNV-0" />
        <mxCell id="WIyWlLk6GJQsqaUBKTNV-1" parent="WIyWlLk6GJQsqaUBKTNV-0" />
        <mxCell id="yoB0JoK2bQdXj_SiShYM-3" value="year % 4 === 0" style="rounded=1;whiteSpace=wrap;html=1;" vertex="1" parent="WIyWlLk6GJQsqaUBKTNV-1">
          <mxGeometry x="330" y="100" width="120" height="40" as="geometry" />
        </mxCell>
        <mxCell id="yoB0JoK2bQdXj_SiShYM-5" value="year % 100 !== 0" style="rounded=1;whiteSpace=wrap;html=1;" vertex="1" parent="WIyWlLk6GJQsqaUBKTNV-1">
          <mxGeometry x="235" y="290" width="120" height="60" as="geometry" />
        </mxCell>
        <mxCell id="yoB0JoK2bQdXj_SiShYM-6" value="" style="endArrow=none;html=1;rounded=0;" edge="1" parent="WIyWlLk6GJQsqaUBKTNV-1">
          <mxGeometry width="50" height="50" relative="1" as="geometry">
            <mxPoint x="389.5" y="220" as="sourcePoint" />
            <mxPoint x="389.5" y="140" as="targetPoint" />
          </mxGeometry>
        </mxCell>
        <mxCell id="yoB0JoK2bQdXj_SiShYM-9" value="" style="endArrow=classic;html=1;rounded=0;" edge="1" parent="WIyWlLk6GJQsqaUBKTNV-1" target="yoB0JoK2bQdXj_SiShYM-8">
          <mxGeometry width="50" height="50" relative="1" as="geometry">
            <mxPoint x="390" y="220" as="sourcePoint" />
            <mxPoint x="230" y="220" as="targetPoint" />
          </mxGeometry>
        </mxCell>
        <mxCell id="yoB0JoK2bQdXj_SiShYM-8" value="true" style="text;html=1;strokeColor=none;fillColor=none;align=center;verticalAlign=middle;whiteSpace=wrap;rounded=0;" vertex="1" parent="WIyWlLk6GJQsqaUBKTNV-1">
          <mxGeometry x="270" y="210" width="50" height="20" as="geometry" />
        </mxCell>
        <mxCell id="yoB0JoK2bQdXj_SiShYM-10" value="" style="endArrow=none;html=1;rounded=0;" edge="1" parent="WIyWlLk6GJQsqaUBKTNV-1">
          <mxGeometry width="50" height="50" relative="1" as="geometry">
            <mxPoint x="294.5" y="290" as="sourcePoint" />
            <mxPoint x="294.5" y="230" as="targetPoint" />
          </mxGeometry>
        </mxCell>
        <mxCell id="yoB0JoK2bQdXj_SiShYM-11" value="" style="endArrow=classic;html=1;rounded=0;" edge="1" parent="WIyWlLk6GJQsqaUBKTNV-1">
          <mxGeometry width="50" height="50" relative="1" as="geometry">
            <mxPoint x="390" y="219.5" as="sourcePoint" />
            <mxPoint x="456" y="220" as="targetPoint" />
          </mxGeometry>
        </mxCell>
        <mxCell id="yoB0JoK2bQdXj_SiShYM-12" value="No Leap" style="text;html=1;strokeColor=none;fillColor=none;align=center;verticalAlign=middle;whiteSpace=wrap;rounded=0;" vertex="1" parent="WIyWlLk6GJQsqaUBKTNV-1">
          <mxGeometry x="450" y="205" width="60" height="30" as="geometry" />
        </mxCell>
        <mxCell id="yoB0JoK2bQdXj_SiShYM-13" value="" style="endArrow=none;html=1;rounded=0;" edge="1" parent="WIyWlLk6GJQsqaUBKTNV-1">
          <mxGeometry width="50" height="50" relative="1" as="geometry">
            <mxPoint x="294.5" y="430" as="sourcePoint" />
            <mxPoint x="294.5" y="350" as="targetPoint" />
          </mxGeometry>
        </mxCell>
        <mxCell id="yoB0JoK2bQdXj_SiShYM-14" value="" style="endArrow=classic;html=1;rounded=0;" edge="1" parent="WIyWlLk6GJQsqaUBKTNV-1" source="yoB0JoK2bQdXj_SiShYM-31">
          <mxGeometry width="50" height="50" relative="1" as="geometry">
            <mxPoint x="300" y="430" as="sourcePoint" />
            <mxPoint x="230" y="430" as="targetPoint" />
          </mxGeometry>
        </mxCell>
        <mxCell id="yoB0JoK2bQdXj_SiShYM-15" value="Yes Leap" style="text;html=1;strokeColor=none;fillColor=none;align=center;verticalAlign=middle;whiteSpace=wrap;rounded=0;" vertex="1" parent="WIyWlLk6GJQsqaUBKTNV-1">
          <mxGeometry x="170" y="415" width="60" height="30" as="geometry" />
        </mxCell>
        <mxCell id="yoB0JoK2bQdXj_SiShYM-17" value="" style="endArrow=classic;html=1;rounded=0;exitX=1;exitY=0.5;exitDx=0;exitDy=0;" edge="1" parent="WIyWlLk6GJQsqaUBKTNV-1" source="yoB0JoK2bQdXj_SiShYM-31">
          <mxGeometry width="50" height="50" relative="1" as="geometry">
            <mxPoint x="300" y="430" as="sourcePoint" />
            <mxPoint x="366" y="430.5" as="targetPoint" />
          </mxGeometry>
        </mxCell>
        <mxCell id="yoB0JoK2bQdXj_SiShYM-19" value="year % 400 === 0" style="rounded=1;whiteSpace=wrap;html=1;" vertex="1" parent="WIyWlLk6GJQsqaUBKTNV-1">
          <mxGeometry x="470" y="400" width="120" height="60" as="geometry" />
        </mxCell>
        <mxCell id="yoB0JoK2bQdXj_SiShYM-26" value="" style="edgeStyle=orthogonalEdgeStyle;rounded=0;orthogonalLoop=1;jettySize=auto;html=1;" edge="1" parent="WIyWlLk6GJQsqaUBKTNV-1" source="yoB0JoK2bQdXj_SiShYM-20">
          <mxGeometry relative="1" as="geometry">
            <mxPoint x="460" y="430" as="targetPoint" />
            <Array as="points" />
          </mxGeometry>
        </mxCell>
        <mxCell id="yoB0JoK2bQdXj_SiShYM-20" value="false" style="text;html=1;strokeColor=none;fillColor=none;align=center;verticalAlign=middle;whiteSpace=wrap;rounded=0;" vertex="1" parent="WIyWlLk6GJQsqaUBKTNV-1">
          <mxGeometry x="370" y="415" width="40" height="30" as="geometry" />
        </mxCell>
        <mxCell id="yoB0JoK2bQdXj_SiShYM-22" value="" style="endArrow=classic;html=1;rounded=0;" edge="1" parent="WIyWlLk6GJQsqaUBKTNV-1" source="yoB0JoK2bQdXj_SiShYM-24">
          <mxGeometry width="50" height="50" relative="1" as="geometry">
            <mxPoint x="590" y="424.5" as="sourcePoint" />
            <mxPoint x="670" y="425" as="targetPoint" />
          </mxGeometry>
        </mxCell>
        <mxCell id="yoB0JoK2bQdXj_SiShYM-25" value="" style="endArrow=classic;html=1;rounded=0;" edge="1" parent="WIyWlLk6GJQsqaUBKTNV-1" target="yoB0JoK2bQdXj_SiShYM-24">
          <mxGeometry width="50" height="50" relative="1" as="geometry">
            <mxPoint x="590" y="424.5" as="sourcePoint" />
            <mxPoint x="670" y="425" as="targetPoint" />
          </mxGeometry>
        </mxCell>
        <mxCell id="yoB0JoK2bQdXj_SiShYM-24" value="true" style="text;html=1;strokeColor=none;fillColor=none;align=center;verticalAlign=middle;whiteSpace=wrap;rounded=0;" vertex="1" parent="WIyWlLk6GJQsqaUBKTNV-1">
          <mxGeometry x="610" y="415" width="40" height="20" as="geometry" />
        </mxCell>
        <mxCell id="yoB0JoK2bQdXj_SiShYM-27" value="" style="endArrow=classic;html=1;rounded=0;exitX=0.5;exitY=1;exitDx=0;exitDy=0;" edge="1" parent="WIyWlLk6GJQsqaUBKTNV-1" source="yoB0JoK2bQdXj_SiShYM-28">
          <mxGeometry width="50" height="50" relative="1" as="geometry">
            <mxPoint x="470" y="500" as="sourcePoint" />
            <mxPoint x="530" y="550" as="targetPoint" />
          </mxGeometry>
        </mxCell>
        <mxCell id="yoB0JoK2bQdXj_SiShYM-29" value="" style="endArrow=classic;html=1;rounded=0;exitX=0.5;exitY=1;exitDx=0;exitDy=0;" edge="1" parent="WIyWlLk6GJQsqaUBKTNV-1" source="yoB0JoK2bQdXj_SiShYM-19" target="yoB0JoK2bQdXj_SiShYM-28">
          <mxGeometry width="50" height="50" relative="1" as="geometry">
            <mxPoint x="530" y="460" as="sourcePoint" />
            <mxPoint x="530" y="550" as="targetPoint" />
          </mxGeometry>
        </mxCell>
        <mxCell id="yoB0JoK2bQdXj_SiShYM-28" value="false" style="text;html=1;strokeColor=none;fillColor=none;align=center;verticalAlign=middle;whiteSpace=wrap;rounded=0;" vertex="1" parent="WIyWlLk6GJQsqaUBKTNV-1">
          <mxGeometry x="500" y="490" width="60" height="30" as="geometry" />
        </mxCell>
        <mxCell id="yoB0JoK2bQdXj_SiShYM-31" value="true" style="text;html=1;strokeColor=none;fillColor=none;align=center;verticalAlign=middle;whiteSpace=wrap;rounded=0;" vertex="1" parent="WIyWlLk6GJQsqaUBKTNV-1">
          <mxGeometry x="250" y="420" width="40" height="20" as="geometry" />
        </mxCell>
        <mxCell id="yoB0JoK2bQdXj_SiShYM-35" value="Yes Leap" style="text;html=1;strokeColor=none;fillColor=none;align=center;verticalAlign=middle;whiteSpace=wrap;rounded=0;" vertex="1" parent="WIyWlLk6GJQsqaUBKTNV-1">
          <mxGeometry x="670" y="410" width="60" height="30" as="geometry" />
        </mxCell>
        <mxCell id="yoB0JoK2bQdXj_SiShYM-36" value="No Leap" style="text;html=1;strokeColor=none;fillColor=none;align=center;verticalAlign=middle;whiteSpace=wrap;rounded=0;" vertex="1" parent="WIyWlLk6GJQsqaUBKTNV-1">
          <mxGeometry x="500" y="554.5" width="60" height="30" as="geometry" />
        </mxCell>
      </root>
    </mxGraphModel>
  </diagram>
</mxfile>
